<svg xmlns="http://www.w3.org/2000/svg" viewBox="0 0 265.51 65.21"><defs><style>.cls-1{fill:#4786ff;}</style></defs><title>availabit2</title><g id="Layer_2" data-name="Layer 2"><g id="Layer_1-2" data-name="Layer 1"><path class="cls-1" d="M8.25,62.86a16.06,16.06,0,0,1-6-6.8A23.41,23.41,0,0,1,0,45.54,42.53,42.53,0,0,1,4.49,26.12,35.23,35.23,0,0,1,17.73,11.76q8.76-5.41,21.05-5.41a51.81,51.81,0,0,1,6.79.48,37.1,37.1,0,0,1,6.59,1.45A2.56,2.56,0,0,1,54.1,11a5.13,5.13,0,0,1-1.35,3.38A4,4,0,0,1,49.61,16a3.48,3.48,0,0,1-.83-.07c-2.39-.55-4.44-1-6.14-1.21a36.93,36.93,0,0,0-5.38-.38,25.55,25.55,0,0,0-14.9,4.25,25.79,25.79,0,0,0-9.18,11.21,37.13,37.13,0,0,0-3,15q0,5.86,2.31,9.07a7.14,7.14,0,0,0,6,3.21,9.77,9.77,0,0,0,7.39-3.45Q29,50.23,31.67,42.5a166.4,166.4,0,0,0,5.18-21,3.63,3.63,0,0,1,1.65-2.62,6.82,6.82,0,0,1,3.31-.69c3.27,0,4.9,1.05,4.9,3.17a6.25,6.25,0,0,1-.2,1.38q-1.8,6.69-3.28,14.8a74.38,74.38,0,0,0-1.48,12.32c0,2.48.36,4.29,1.1,5.41A3.74,3.74,0,0,0,46.23,57a7,7,0,0,0,4.21-1.48,34,34,0,0,0,5-5.07,2.43,2.43,0,0,1,1.86-1,1.59,1.59,0,0,1,1.41.83,4.23,4.23,0,0,1,.52,2.28A6.55,6.55,0,0,1,58,56.86a31.47,31.47,0,0,1-6.62,6.21,14.18,14.18,0,0,1-7.94,2.14,10.94,10.94,0,0,1-7.8-2.8,13.12,13.12,0,0,1-3.72-7.9q-5.11,10.7-15,10.7A16.13,16.13,0,0,1,8.25,62.86Z"/><path class="cls-1" d="M88.53,43.81a1.92,1.92,0,0,1,1.58.69,2.93,2.93,0,0,1,.56,1.87,5.85,5.85,0,0,1-.83,3.34,4.61,4.61,0,0,1-2.49,1.76,21.65,21.65,0,0,1-6.76,1,19.39,19.39,0,0,1-5.72-.83q-2,3.24-4.42,6.69a23.54,23.54,0,0,1-4.76,5.39,7.62,7.62,0,0,1-4.56,1.45A5.23,5.23,0,0,1,56.68,63c-1.08-1.47-1.76-3.8-2-7q-.82-9.66-.83-16.91V36.71a4,4,0,0,1,1.24-3.18,5.81,5.81,0,0,1,3.52-.89,3.83,3.83,0,0,1,2.66.79,3.5,3.5,0,0,1,.86,2.66q0,7.94,1,20.63,4.14-6.15,6.21-9.8a10.22,10.22,0,0,1-1-4.76,10.69,10.69,0,0,1,1-4.56A9.58,9.58,0,0,1,72.1,34a6.53,6.53,0,0,1,4.08-1.38,4.12,4.12,0,0,1,3.24,1.41,6,6,0,0,1,1.24,4.11A18.77,18.77,0,0,1,79,45.26a48.24,48.24,0,0,0,7-1l1.87-.35A2.62,2.62,0,0,1,88.53,43.81Z"/><path class="cls-1" d="M86.32,62.1A12.41,12.41,0,0,1,83.77,54,22.48,22.48,0,0,1,86.32,43.5a21.82,21.82,0,0,1,6.8-7.93,15.31,15.31,0,0,1,9-3,2.72,2.72,0,0,1,2,.58,5.12,5.12,0,0,1,.86,2.11,16.41,16.41,0,0,1,3-.28c2.26,0,3.38.81,3.38,2.42a51.69,51.69,0,0,1-1,6.9,66.85,66.85,0,0,0-1.59,11,2.45,2.45,0,0,0,.52,1.65,1.66,1.66,0,0,0,1.35.62,5.22,5.22,0,0,0,3.17-1.69,58.66,58.66,0,0,0,5-5.48,2.43,2.43,0,0,1,1.86-1,1.59,1.59,0,0,1,1.41.83,4.23,4.23,0,0,1,.52,2.28,6.39,6.39,0,0,1-1.31,4.28,35.29,35.29,0,0,1-6,5.93,10.27,10.27,0,0,1-6.14,2.42,6.45,6.45,0,0,1-4.18-1.56,9.45,9.45,0,0,1-2.86-4.24q-3.59,5.79-9,5.8A8.39,8.39,0,0,1,86.32,62.1Zm12.21-5.66a11.53,11.53,0,0,0,2-4.76L103.09,39a8.39,8.39,0,0,0-5.35,2.18,14.57,14.57,0,0,0-3.9,5.55A18.64,18.64,0,0,0,92.39,54a4.92,4.92,0,0,0,.86,3.17,2.94,2.94,0,0,0,2.38,1A3.78,3.78,0,0,0,98.53,56.44Z"/><path class="cls-1" d="M119.06,62a15.37,15.37,0,0,1-2-8.42,51.62,51.62,0,0,1,.8-8,72.65,72.65,0,0,1,2-9.07,6,6,0,0,1,1.66-3,5.31,5.31,0,0,1,3.31-.82c2.35,0,3.52.78,3.52,2.34a54.74,54.74,0,0,1-1.31,8,59.11,59.11,0,0,0-1.66,10.28,7.36,7.36,0,0,0,.55,3.17,1.92,1.92,0,0,0,1.87,1.1,5.19,5.19,0,0,0,3.1-1.72,62.58,62.58,0,0,0,5-5.45,2.43,2.43,0,0,1,1.86-1,1.61,1.61,0,0,1,1.42.83,4.33,4.33,0,0,1,.51,2.28,6.33,6.33,0,0,1-1.31,4.28q-6.83,8.34-12.76,8.35C122.59,65.21,120.41,64.15,119.06,62Zm2.72-35.22a4.9,4.9,0,0,1-1.45-3.76,5.12,5.12,0,0,1,1.9-4A7,7,0,0,1,127,17.39a6.52,6.52,0,0,1,4.14,1.24,4.21,4.21,0,0,1,1.59,3.52,5.6,5.6,0,0,1-1.8,4.38,6.83,6.83,0,0,1-4.76,1.62A6.24,6.24,0,0,1,121.78,26.81Z"/><path class="cls-1" d="M161.63,50.3a4.23,4.23,0,0,1,.52,2.28,6.39,6.39,0,0,1-1.31,4.28,29.92,29.92,0,0,1-6.45,6,13.89,13.89,0,0,1-7.91,2.35,9.59,9.59,0,0,1-9-5.52q-2.94-5.52-2.93-14.29a98,98,0,0,1,2.17-19.18,65,65,0,0,1,6.42-18.49Q147.39,0,153.25,0a5.85,5.85,0,0,1,5.21,3.07q1.89,3.08,1.89,8.8,0,8.21-4.55,19a105.51,105.51,0,0,1-12.35,21.46,8,8,0,0,0,1.59,4,3.74,3.74,0,0,0,2.89,1.2,8,8,0,0,0,5-1.62,37.24,37.24,0,0,0,5.45-5.55,2.45,2.45,0,0,1,1.87-1A1.6,1.6,0,0,1,161.63,50.3ZM148.14,12.56a94.28,94.28,0,0,0-3.52,14.21A102.94,102.94,0,0,0,143,43.06a89.55,89.55,0,0,0,7.79-16.18,44.45,44.45,0,0,0,2.9-14.81q0-5.23-1.93-5.24Q150.14,6.83,148.14,12.56Z"/><path class="cls-1" d="M157.52,62.1A12.41,12.41,0,0,1,155,54a22.48,22.48,0,0,1,2.55-10.46,21.92,21.92,0,0,1,6.8-7.93,15.34,15.34,0,0,1,9-3,2.67,2.67,0,0,1,2,.58,5,5,0,0,1,.86,2.11,16.6,16.6,0,0,1,3-.28c2.25,0,3.38.81,3.38,2.42a51.69,51.69,0,0,1-1,6.9,66.85,66.85,0,0,0-1.59,11,2.45,2.45,0,0,0,.52,1.65,1.64,1.64,0,0,0,1.34.62,5.27,5.27,0,0,0,3.18-1.69,57.49,57.49,0,0,0,5-5.48,2.45,2.45,0,0,1,1.87-1,1.6,1.6,0,0,1,1.41.83,4.32,4.32,0,0,1,.52,2.28,6.39,6.39,0,0,1-1.31,4.28,35,35,0,0,1-6,5.93,10.22,10.22,0,0,1-6.14,2.42,6.4,6.4,0,0,1-4.17-1.56,9.46,9.46,0,0,1-2.87-4.24q-3.58,5.79-9,5.8A8.41,8.41,0,0,1,157.52,62.1Zm12.22-5.66a11.66,11.66,0,0,0,2-4.76L174.29,39a8.43,8.43,0,0,0-5.35,2.18,14.55,14.55,0,0,0-3.89,5.55A18.64,18.64,0,0,0,163.6,54a4.86,4.86,0,0,0,.86,3.17,2.93,2.93,0,0,0,2.38,1A3.79,3.79,0,0,0,169.74,56.44Z"/><path class="cls-1" d="M226.39,44.57a4.82,4.82,0,0,1,.48,2.28,5.93,5.93,0,0,1-.48,2.66,2.57,2.57,0,0,1-1.52,1.27,31.37,31.37,0,0,1-9.11,1.66,17.92,17.92,0,0,1-5.21,9.25,12.25,12.25,0,0,1-8.45,3.52q-7,0-10.15-5.32T188.78,44.5A94.23,94.23,0,0,1,191,25.15a60.39,60.39,0,0,1,6.45-17.8Q201.69,0,207.55,0a6,6,0,0,1,5.11,2.73,12,12,0,0,1,1.93,7.07A31.33,31.33,0,0,1,212.45,21a44.18,44.18,0,0,1-7.11,11.73,10.44,10.44,0,0,1,7.52,3.83,15.8,15.8,0,0,1,3.45,8.59A40.56,40.56,0,0,0,224,43.81a3.14,3.14,0,0,1,1-.13A1.53,1.53,0,0,1,226.39,44.57ZM206.17,56.1a9.85,9.85,0,0,0,2.21-5.18,9.48,9.48,0,0,1-3.28-3.79,11.24,11.24,0,0,1-1.14-5,16.25,16.25,0,0,1,.28-2.62H204a5.59,5.59,0,0,0-4.73,2.79,13.17,13.17,0,0,0-1.89,7.49,10.22,10.22,0,0,0,1.48,6,4.25,4.25,0,0,0,3.48,2.07A5.05,5.05,0,0,0,206.17,56.1ZM203,10.94a66,66,0,0,0-3,11.14,140.12,140.12,0,0,0-2.07,15.39q4.55-8.35,7.28-14.73a29.4,29.4,0,0,0,2.72-11.36A8.82,8.82,0,0,0,207.38,8c-.35-.78-.82-1.17-1.42-1.17Q204.58,6.83,203,10.94Z"/><path class="cls-1" d="M222.9,62a15.37,15.37,0,0,1-2-8.42,51.41,51.41,0,0,1,.79-8,76.4,76.4,0,0,1,2-9.07,6,6,0,0,1,1.66-3,5.31,5.31,0,0,1,3.31-.82c2.35,0,3.52.78,3.52,2.34a54.74,54.74,0,0,1-1.31,8,60.14,60.14,0,0,0-1.66,10.28,7.2,7.2,0,0,0,.56,3.17,1.89,1.89,0,0,0,1.86,1.1c.83,0,1.86-.57,3.1-1.72a61,61,0,0,0,5-5.45,2.45,2.45,0,0,1,1.87-1,1.61,1.61,0,0,1,1.41.83,4.32,4.32,0,0,1,.52,2.28,6.39,6.39,0,0,1-1.31,4.28q-6.84,8.34-12.77,8.35Q224.94,65.21,222.9,62Zm2.73-35.22a4.87,4.87,0,0,1-1.45-3.76,5.11,5.11,0,0,1,1.89-4,7,7,0,0,1,4.73-1.62,6.52,6.52,0,0,1,4.14,1.24,4.21,4.21,0,0,1,1.59,3.52,5.6,5.6,0,0,1-1.8,4.38A6.82,6.82,0,0,1,230,28.15,6.2,6.2,0,0,1,225.63,26.81Z"/><path class="cls-1" d="M249.29,39.26c-.09,2.3-.14,4.1-.14,5.38a45.57,45.57,0,0,0,.52,7.77,7.57,7.57,0,0,0,1.73,4,4.52,4.52,0,0,0,3.34,1.2,6.35,6.35,0,0,0,2.62-.69,10.31,10.31,0,0,0,2.76-1.79,2.3,2.3,0,0,1,1.52-.69,1.54,1.54,0,0,1,1.35.93,4.61,4.61,0,0,1,.52,2.24,6.69,6.69,0,0,1-.52,2.56,5.15,5.15,0,0,1-1.55,2.07,12.45,12.45,0,0,1-8.15,3,10.19,10.19,0,0,1-9.59-5.49q-3-5.49-3-14.32,0-3,.2-6.14h-2.69a3.83,3.83,0,0,1-2.79-.76,3.4,3.4,0,0,1-.73-2.41q0-3.87,3.11-3.87h3.93a67.1,67.1,0,0,1,3.59-13.87,31.23,31.23,0,0,1,5.83-10q3.42-3.73,7.35-3.73A5.14,5.14,0,0,1,263,7.18a11.5,11.5,0,0,1,1.66,6.41q0,10.69-9,18.63h7.73a2.14,2.14,0,0,1,1.58.49,2.54,2.54,0,0,1,.49,1.79q0,4.76-7.8,4.76Zm5-25.43A37.14,37.14,0,0,0,251.88,21,96.84,96.84,0,0,0,250,31.19a23.59,23.59,0,0,0,6.11-7.9,19.26,19.26,0,0,0,2-8c0-2.72-.5-4.07-1.51-4.07C255.92,11.25,255.14,12.11,254.29,13.83Z"/></g></g></svg>
