<?xml version="1.0" encoding="UTF-8" standalone="no"?>
<svg width="29px" height="28px" viewBox="0 0 29 28" version="1.1" xmlns="http://www.w3.org/2000/svg" xmlns:xlink="http://www.w3.org/1999/xlink">
    <!-- Generator: Sketch 49 (51002) - http://www.bohemiancoding.com/sketch -->
    <title>Shape</title>
    <desc>Created with Sketch.</desc>
    <defs></defs>
    <g id="Page-1" stroke="none" stroke-width="1" fill="none" fill-rule="evenodd">
        <g id="Landing-page" transform="translate(-1164.000000, -22.000000)" fill="#FFFFFF" fill-rule="nonzero">
            <path d="M1178.5,22 C1170.49243,22 1164,28.427023 1164,36.3539183 C1164,42.6968363 1168.15425,48.0760513 1173.91653,49.9736561 C1174.64136,50.1050841 1174.90598,49.6617667 1174.90598,49.2832943 C1174.90598,48.9416037 1174.8927,47.8097188 1174.88562,46.6112227 C1170.85352,47.4785414 1170.00124,44.9186098 1170.00124,44.9186098 C1169.34104,43.2610406 1168.3914,42.8194894 1168.3914,42.8194894 C1167.07363,41.9293782 1168.49138,41.9469001 1168.49138,41.9469001 C1169.94721,42.0467608 1170.71367,43.4257462 1170.71367,43.4257462 C1172.00757,45.6194847 1174.10857,44.9851929 1174.9334,44.6172336 C1175.0652,43.6920787 1175.44044,43.0577869 1175.85381,42.7003407 C1172.63503,42.3376519 1169.249,41.1058502 1169.249,35.6057203 C1169.249,34.0374987 1169.81453,32.75843 1170.74023,31.7535435 C1170.59243,31.3890886 1170.09329,29.9286335 1170.88359,27.9530633 C1170.88359,27.9530633 1172.09961,27.5675821 1174.87143,29.4249007 C1176.02724,29.1051335 1177.26716,28.9474366 1178.49997,28.942166 C1179.73191,28.9474366 1180.97267,29.1068717 1182.1303,29.4266388 C1184.89685,27.5675821 1186.11462,27.9548015 1186.11462,27.9548015 C1186.90759,29.9321378 1186.40845,31.3908268 1186.25977,31.7535435 C1187.18901,32.75843 1187.75012,34.0375267 1187.75012,35.6057203 C1187.75012,41.1198677 1184.35876,42.3341195 1181.12849,42.6898275 C1181.65066,43.1348831 1182.11262,44.0074724 1182.11262,45.3461435 C1182.11262,47.2648026 1182.09314,48.8119699 1182.09314,49.2850605 C1182.09314,49.6670373 1182.35686,50.1138311 1183.09143,49.9736561 C1188.84932,48.0725469 1193,42.6933319 1193,36.3539183 C1193,28.427023 1186.50757,22 1178.5,22 Z" id="Shape"></path>
        </g>
    </g>
</svg>