<?xml version="1.0" encoding="UTF-8" standalone="no"?>
<svg width="16px" height="16px" viewBox="0 0 16 16" version="1.1" xmlns="http://www.w3.org/2000/svg" xmlns:xlink="http://www.w3.org/1999/xlink">
    <!-- Generator: Sketch 49 (51002) - http://www.bohemiancoding.com/sketch -->
    <title>Combined Shape</title>
    <desc>Created with Sketch.</desc>
    <defs></defs>
    <g id="Page-1" stroke="none" stroke-width="1" fill="none" fill-rule="evenodd">
        <g id="Tabela" transform="translate(-1059.000000, -167.000000)" fill="#FFFFFF">
            <g id="Group-4" transform="translate(1059.000000, 167.000000)">
                <path d="M9,6.87776901 L9,4.21052632 C9,3.65824157 8.55228475,3.21052632 8,3.21052632 C7.44771525,3.21052632 7,3.65824157 7,4.21052632 L7,6.87776901 L4.33275731,6.87776901 C3.78047256,6.87776901 3.33275731,7.32548426 3.33275731,7.87776901 C3.33275731,8.43005376 3.78047256,8.87776901 4.33275731,8.87776901 L7,8.87776901 L7,11.5450117 C7,12.0972964 7.44771525,12.5450117 8,12.5450117 C8.55228475,12.5450117 9,12.0972964 9,11.5450117 L9,8.87776901 L11.6672427,8.87776901 C12.2195274,8.87776901 12.6672427,8.43005376 12.6672427,7.87776901 C12.6672427,7.32548426 12.2195274,6.87776901 11.6672427,6.87776901 L9,6.87776901 Z M8,16 C3.581722,16 0,12.418278 0,8 C0,3.581722 3.581722,0 8,0 C12.418278,0 16,3.581722 16,8 C16,12.418278 12.418278,16 8,16 Z" id="Combined-Shape"></path>
            </g>
        </g>
    </g>
</svg>